# xmcd CD database file
#
# Track frame offsets:
#	150
#	21867
#	50557
#	87625
#	127447
#	154187
#	185625
#	208860
#	238177
#
# Disc length: 3592 seconds
#
# Revision: 0
# Processed by: cddbd v1.5.2PL0 Copyright (c) Steve Scherf et al.
# Submitted via: CDex 1.51
#
DISCID=8b0e0609
DTITLE=John Ray - Enchanting Moments
DYEAR=1995
DGENRE=New Age
TTITLE0=A Sunday Morning With You
TTITLE1=Enchanting Moment
TTITLE2=One First Dance
TTITLE3=Celestial Sounds
TTITLE4=Vera
TTITLE5=Journey Back to the Planet Earth
TTITLE6=Diane
TTITLE7=Enchanting Moments (Afterglow)
TTITLE8=I Miss You
EXTD=YEAR: 1995
EXTT0=
EXTT1=
EXTT2=
EXTT3=
EXTT4=
EXTT5=
EXTT6=
EXTT7=
EXTT8=
PLAYORDER=
